<svg width="160" height="160" viewBox="0 0 160 160" fill="none" xmlns="http://www.w3.org/2000/svg">
<path d="M100 27.8261C100 23.5038 103.504 20 107.826 20C125.595 20 140 34.4048 140 52.1739V80C140 83.0591 137.918 85.7257 134.95 86.4676L108.284 93.1343C106.292 93.6322 104.182 93.1847 102.564 91.9214C100.946 90.658 100 88.7196 100 86.6667V27.8261Z" fill="#1F3656"/>
<path d="M113.333 113.333C113.333 109.651 110.349 106.667 106.667 106.667C102.985 106.667 100 109.651 100 113.333V133.333C100 137.015 102.985 140 106.667 140C110.349 140 113.333 137.015 113.333 133.333V113.333Z" fill="#1F3656"/>
<path d="M26.6667 20C30.3486 20 33.3333 22.9848 33.3333 26.6667V40C33.3333 48.7081 38.8987 56.1164 46.6667 58.862V26.6667C46.6667 22.9848 49.6514 20 53.3333 20C57.0152 20 60 22.9848 60 26.6667V58.862C67.7679 56.1164 73.3333 48.7081 73.3333 40V26.6667C73.3333 22.9848 76.3181 20 80 20C83.6819 20 86.6667 22.9848 86.6667 26.6667V40C86.6667 58.4095 71.7428 73.3333 53.3333 73.3333C34.9238 73.3333 20 58.4095 20 40V26.6667C20 22.9848 22.9848 20 26.6667 20Z" fill="#1F3656"/>
<path d="M53.3333 86.6667C57.0152 86.6667 60 89.6514 60 93.3333V133.333C60 137.015 57.0152 140 53.3333 140C49.6514 140 46.6667 137.015 46.6667 133.333V93.3333C46.6667 89.6514 49.6514 86.6667 53.3333 86.6667Z" fill="#1F3656"/>
</svg>
