<svg width="423" height="84" viewBox="0 0 423 84" fill="none" xmlns="http://www.w3.org/2000/svg">
<g clip-path="url(#clip0_803_2168)">
<path d="M56.4059 38.3343C56.7101 39.7671 56.662 41.2524 56.2658 42.6625C56.0624 43.4042 55.963 43.454 55.285 43.1148C52.8097 41.7615 50.1607 40.7541 47.4119 40.1208C42.1538 38.9084 36.632 39.7359 31.9594 42.4364C31.7289 42.563 31.5075 42.6897 31.2679 42.8072C31.2318 42.8072 31.1821 42.8072 31.0736 42.8072C31.4095 42.2878 31.8088 41.8123 32.2623 41.3917C35.1593 38.4655 38.7298 37.1539 42.7929 37.0544C45.9126 37.0005 49.0212 37.44 52.0038 38.357C52.2072 38.4158 52.4151 38.4791 52.623 38.5333C52.6963 38.5307 52.769 38.5201 52.8399 38.5017C52.2952 37.3891 51.4925 36.4231 50.4988 35.6841C48.0673 33.7936 45.229 33.174 42.228 33.0926C40.8721 33.0519 39.4846 33.0926 38.1061 33.174C39.575 32.4416 41.1616 31.9746 42.7929 31.7946C45.7104 31.3425 48.6954 31.667 51.4479 32.7353C54.6116 33.979 59.425 31.9936 60.6182 29.1172C62.1096 25.5352 59.8453 21.0171 56.2116 20.3704C54.6207 20.09 53.31 20.7548 52.1439 21.7272C50.9779 22.6995 50.9598 22.7312 50.6027 21.2297C50.0966 19.1357 49.3689 17.1593 47.778 15.6035C45.8979 13.7945 43.6652 13.0663 41.1252 13.8578C38.4857 14.6809 37.0214 16.6121 36.4203 19.2849C36.1526 20.647 36.057 22.0373 36.1355 23.4232L35.1819 22.7403C33.4735 21.5508 31.634 20.8543 29.5595 21.3066C27.4851 21.7588 26.084 22.8985 25.4377 24.9247C24.8185 26.8604 25.3834 28.5428 26.7212 30.0127C27.4482 30.7787 28.2423 31.4779 29.094 32.1021C31.7832 34.1554 32.547 36.8509 31.747 40.1525C31.4126 39.456 31.1007 38.8273 30.816 38.1896C30.6714 37.873 30.5087 37.8549 30.2149 38.0087C28.5215 38.8952 26.8222 39.771 25.1168 40.6364C24.9976 40.6865 24.8978 40.774 24.8326 40.8858C24.7674 40.9975 24.7402 41.1274 24.7552 41.256C24.7552 46.457 24.7552 51.6566 24.7552 56.8546C24.7552 57.4787 25.1439 57.3069 25.4648 57.3069H43.3488C44.554 57.3069 44.9698 57.8888 44.5962 59.0526C44.4923 59.3737 44.2482 59.3963 43.9725 59.3963C43.1545 59.3963 42.3409 59.3963 41.5274 59.3963C36.1898 59.3963 30.8476 59.3963 25.51 59.3963C24.8501 59.3963 24.7236 59.5818 24.7462 60.1878C24.7959 61.4541 24.7869 62.7295 24.7462 63.9959C24.7462 64.5114 24.8953 64.6245 25.3834 64.62C28.9042 64.62 32.425 64.62 35.9457 64.62C36.2892 64.62 36.7321 64.5069 36.8496 64.9592C37.0095 65.4645 36.9967 66.0086 36.8135 66.5059C36.7705 66.579 36.7079 66.6385 36.6328 66.6777C36.5577 66.7169 36.4731 66.7341 36.3886 66.7275H6.10289C5.7594 66.7275 5.28032 66.8768 5.13569 66.4697C4.94585 65.9466 4.9555 65.3717 5.16281 64.8552C5.30744 64.5205 5.70064 64.62 6.00797 64.62C11.1558 64.62 16.3036 64.62 21.4514 64.62C22.1339 64.62 22.3553 64.4707 22.3101 63.7652C22.2469 62.526 22.2694 61.2777 22.3101 60.0295C22.3101 59.532 22.1881 59.3918 21.6819 59.3963C19.0741 59.4235 16.4618 59.3963 13.854 59.3963C12.7648 59.3963 12.7648 59.3963 12.7648 58.3335C12.7648 57.2707 12.7648 57.3069 13.8947 57.3069C16.4075 57.3069 18.9204 57.2797 21.4333 57.3069C22.1067 57.3069 22.3372 57.1757 22.3146 56.4521C22.283 51.0882 22.3146 45.7198 22.283 40.356C22.2618 40.1601 22.3051 39.9627 22.4062 39.7938C22.5074 39.6248 22.6609 39.4935 22.8434 39.4198C24.9857 38.366 27.1099 37.276 29.3019 36.1635C28.8105 35.5675 28.2609 35.0221 27.6613 34.5353C26.4681 33.4635 25.1891 32.4911 24.0954 31.3107C19.856 26.7383 21.3565 20.7322 27.2591 18.6789C28.68 18.1924 30.1648 17.9181 31.6657 17.8648C31.9613 17.8815 32.2535 17.7951 32.4925 17.6202C32.7315 17.4454 32.9025 17.193 32.9764 16.906C34.8294 11.9402 40.628 8.91451 45.5453 10.3618C46.9347 10.7516 48.2116 11.4662 49.2709 12.4468C50.3301 13.4273 51.1413 14.6457 51.6377 16.0015C52.1213 17.2 52.1439 17.2543 53.4456 17.1186C55.7551 16.8699 57.9923 17.0824 60.0668 18.1905C65.0835 20.8543 66.349 26.9825 62.8508 31.5594C61.4741 33.2556 59.7712 34.6582 57.8431 35.6841L57.2239 36.0459C57.2239 36.0459 57.2239 36.0866 57.1607 36.1725C57.3505 36.272 57.5403 36.3851 57.7392 36.4846C59.7278 37.4796 61.7074 38.4836 63.7095 39.456C63.8839 39.517 64.0326 39.6349 64.1318 39.7908C64.231 39.9467 64.2749 40.1314 64.2564 40.3153C64.2564 51.3143 64.2564 62.3119 64.2564 73.308C64.2564 73.8326 64.1389 73.9999 63.592 73.9999C47.0202 73.9999 30.4484 73.9999 13.8766 73.9999C13.289 73.9999 13.0133 73.8145 13.0902 73.213C13.0902 73.1633 13.0902 73.1135 13.0902 73.0683C13.0902 71.9014 13.0902 71.9014 14.2201 71.9014H39.2993C46.5306 71.9014 53.7619 71.9014 60.9933 71.9014C61.6441 71.9014 61.7706 71.7205 61.7661 71.11C61.7481 61.2355 61.7481 51.3641 61.7661 41.4957C61.7928 41.2758 61.7444 41.0533 61.6287 40.8644C61.513 40.6756 61.3368 40.5314 61.1289 40.4555C59.6058 39.7138 58.1007 38.9313 56.5867 38.1625C56.3788 38.063 56.3426 38.1444 56.4059 38.3343Z" fill="white"/>
<path d="M165.445 45.331C165.102 48.7908 164.727 52.115 164.442 55.4482C164.193 58.3698 163.99 61.3005 163.859 64.2266C163.705 67.3337 161.391 65.6196 160.13 65.7734C158.426 65.9859 159.403 64.4482 159.511 63.8603C161.238 54.3899 162.494 44.8652 163.818 35.3179C163.913 34.6485 163.366 33.2284 164.632 33.4183C165.897 33.6083 167.637 32.3827 168.659 34.644C171.601 41.2063 174.841 47.6511 177.978 54.1411C178.172 54.5391 178.403 54.9145 178.837 55.6969C179.664 54.1818 180.401 52.9426 181.029 51.6537C183.741 46.0456 186.579 40.4827 189.065 34.7751C190.1 32.3962 191.831 33.5992 193.227 33.4183C194.719 33.2193 194.09 34.7118 194.185 35.44C195.41 44.9104 196.522 54.3944 197.801 63.8558C198.045 65.6648 197.616 66.0719 195.912 65.9C194.063 65.71 191.668 66.4292 190.488 65.5065C189.517 64.7467 189.959 62.1643 189.797 60.3869C189.345 55.3125 188.87 50.2335 188.382 44.8606C187.239 45.7652 186.995 46.7963 186.574 47.6918C183.863 53.2939 181.169 58.911 178.493 64.5432C178.177 65.208 178.014 65.8683 176.984 65.9C175.881 65.9497 175.583 65.3075 175.221 64.5432C172.461 58.7904 169.691 53.0406 166.91 47.2938C166.58 46.6697 166.476 45.8556 165.445 45.331Z" fill="white"/>
<path d="M114.053 49.5552C113.734 54.2877 113.762 59.0372 114.139 63.7654C114.288 65.3167 114.139 66.185 112.218 65.8956C110.297 65.6061 107.725 66.7051 106.659 65.4433C105.755 64.3714 106.532 61.8659 106.568 60.0161C106.618 57.3794 106.605 54.7427 106.745 52.1151C106.817 50.7583 106.374 50.202 105.014 50.2065C101.326 50.2065 97.6423 50.1794 93.9588 50.1387C92.6481 50.1387 92.3725 50.808 92.4041 51.9929C92.5216 56.0633 92.4357 60.1337 92.6617 64.2041C92.7476 65.7237 92.3318 66.0131 90.9895 65.9317C89.5638 65.8119 88.1306 65.8119 86.7049 65.9317C85.2134 66.0765 84.7795 65.6106 84.8745 64.1227C85.462 54.5075 85.462 44.8653 84.8745 35.2501C84.7931 33.8933 84.9694 33.043 86.6235 33.4094C87.2229 33.4903 87.8266 33.5341 88.4314 33.5405C89.8189 33.6672 91.69 32.6631 92.4538 33.7667C93.1046 34.7164 92.5261 36.5074 92.508 37.9275C92.4764 40.1888 92.508 42.4501 92.4131 44.7115C92.3589 45.9235 92.6481 46.4617 94.004 46.4346C97.686 46.3502 101.372 46.3502 105.063 46.4346C106.55 46.4663 106.745 45.8693 106.668 44.5351C106.483 41.3059 106.564 38.0632 106.388 34.834C106.32 33.5677 106.681 33.2466 107.866 33.4094C108.835 33.533 109.814 33.5708 110.79 33.5224C114.315 33.3687 114.193 33.3506 114.089 36.7697C113.958 40.9803 114.053 45.2768 114.053 49.5552Z" fill="white"/>
<path d="M155.841 49.4012C155.864 59.0073 148.773 66.1893 138.906 66.542C136.799 66.6557 134.686 66.5191 132.611 66.135C124.588 64.5068 119.834 58.9982 119.603 51.1198C119.346 42.2237 124.073 35.4398 132.163 33.3367C136.923 32.0315 141.981 32.3497 146.54 34.2413C152.587 36.7739 155.823 42.1107 155.841 49.4012ZM127.513 50.0841C127.481 53.0464 127.815 55.9635 129.158 58.6319C129.835 59.9553 130.821 61.0962 132.032 61.9585C133.242 62.8208 134.642 63.3793 136.114 63.5868C137.585 63.7942 139.085 63.6447 140.486 63.1508C141.888 62.6568 143.15 61.8329 144.167 60.7485C148.804 55.7329 149.365 44.666 145.265 39.2117C144.474 38.1099 143.443 37.2014 142.251 36.5543C141.059 35.9072 139.736 35.538 138.381 35.4745C137.026 35.411 135.675 35.6548 134.428 36.1876C133.18 36.7204 132.069 37.5285 131.178 38.5513C128.227 41.8212 127.598 45.878 127.513 50.0841Z" fill="white"/>
<path d="M203.125 49.347C203.125 44.5303 203.161 39.7183 203.093 34.9016C203.093 33.6579 203.347 33.2056 204.68 33.269C209.787 33.5132 214.899 33.4725 220.006 33.3051C222.717 33.2147 220.864 35.2499 221.271 36.2222C221.795 37.475 220.819 37.4569 219.915 37.3936C217.443 37.2172 214.944 37.172 212.494 36.9097C211.03 36.7559 210.686 37.3891 210.664 38.6554C210.664 40.9168 210.623 43.1781 210.497 45.4394C210.424 46.7419 210.921 47.1671 212.173 47.1083C214.727 46.9816 217.285 46.9861 219.857 46.855C220.828 46.8098 221.33 46.8052 221.235 48.0987C221.027 51.0294 221.122 51.0158 218.044 50.8123C215.653 50.645 212.621 49.6409 211.043 50.9344C209.466 52.2279 210.591 55.3123 210.56 57.6098C210.478 62.4807 210.533 62.4853 215.391 62.327C216.517 62.2863 217.705 62.4265 218.758 62.1144C221.018 61.4496 221.624 62.1822 221.357 64.4119C221.24 65.4295 221.357 66.031 220.001 65.9994C214.89 65.8953 209.769 65.8592 204.635 65.9315C203.279 65.9315 203.071 65.4793 203.089 64.2717C203.166 59.2968 203.125 54.3219 203.125 49.347Z" fill="white"/>
<path d="M309.62 49.7992C309.539 38.8634 317.674 31.6724 329.005 32.6674C338.302 33.486 344.276 38.7006 345.126 46.7374C346.514 59.8304 338.482 67.7948 325.204 66.4968C315.374 65.5154 309.684 59.4189 309.62 49.7992ZM340.697 49.6952C340.494 48.058 340.39 46.3982 340.069 44.7836C338.876 38.8046 334.437 34.8609 328.747 34.6212C321.588 34.3227 317.118 37.276 315.243 43.6665C314.14 47.4446 314.099 51.4538 315.125 55.2535C316.757 61.4812 321.258 64.9229 327.604 64.8687C333.949 64.8144 338.451 61.2506 339.956 55.0545C340.38 53.2897 340.625 51.4866 340.688 49.6726L340.697 49.6952Z" fill="white"/>
<path d="M305.788 49.7449C305.788 60.9701 297.829 67.6093 285.739 66.4787C272.745 65.2802 265.853 52.3318 272.18 40.8579C275.687 34.5262 281.603 32.5362 288.383 32.6176C299.176 32.7669 305.797 39.3564 305.788 49.7449ZM287.886 34.594C282.214 34.594 278.182 37.0905 276.257 42.1649C275.265 44.6551 274.776 47.317 274.817 49.9972C274.858 52.6775 275.429 55.3231 276.496 57.7816C278.634 62.7565 282.824 64.8777 288.066 64.8324C293.309 64.7872 297.386 62.6299 299.533 57.5962C301.372 53.2906 301.467 48.8042 300.391 44.3268C298.837 37.8548 294.539 34.5895 287.886 34.594V34.594Z" fill="white"/>
<path d="M380.79 53.1145C380.763 45.8149 380.903 40.3199 380.478 34.8385C380.419 34.0922 380.166 33.2058 381.414 33.3053C387.185 33.7576 392.997 32.6857 398.728 33.554C406.412 34.7164 410.276 39.5104 410.547 47.6331C410.936 59.0482 404.333 65.9091 392.921 65.9407C389.237 65.9407 385.549 65.8412 381.87 65.9091C380.614 65.9091 380.365 65.5789 380.478 64.3759C380.773 60.6298 380.877 56.8712 380.79 53.1145V53.1145ZM384.948 49.6502H384.867C384.867 52.5853 384.831 55.5296 384.867 58.4557C384.953 63.9643 384.971 63.9643 390.367 64.2493C398.751 64.7015 404.183 60.7035 405.463 52.9743C405.96 50.0719 405.895 47.101 405.273 44.223C404.12 39.0219 400.966 36.1953 395.669 35.5666C392.885 35.2365 390.119 35.5666 387.343 35.5395C385.414 35.5395 384.898 36.4169 384.921 38.1355C384.98 41.9752 384.948 45.8104 384.948 49.6502V49.6502Z" fill="white"/>
<path d="M356.172 48.4654C359.693 45.5799 362.594 42.3598 365.6 39.2482C366.519 38.3579 367.369 37.3994 368.144 36.3808C369.776 34.1195 371.67 32.5366 374.897 33.6085C372.881 35.5034 370.829 37.3803 368.827 39.3341C366.3 41.808 363.855 44.3859 361.315 46.8282C360.294 47.8051 360.411 48.402 361.315 49.388C363.774 52.0337 366.101 54.8152 368.483 57.5287C370.865 60.2423 373.143 62.8383 375.669 65.7057C372.632 65.9544 370.11 66.4022 367.923 63.4082C364.389 58.5735 360.298 54.1458 355.96 49.7136C355.96 52.8795 355.96 56.0453 355.96 59.2383C355.894 60.5974 355.95 61.9596 356.127 63.3087C356.506 65.3529 355.991 65.9137 353.786 66.0223C351.354 66.1173 351.381 65.1178 351.494 63.3087C352.049 54.215 352.064 45.0964 351.539 36.0009C351.49 35.1326 351.056 33.7396 351.774 33.4909C353.08 33.1515 354.451 33.1515 355.756 33.4909C356.624 33.6808 356.145 34.7934 356.154 35.4854C356.172 39.6462 356.172 43.8523 356.172 48.4654Z" fill="white"/>
<path d="M265.369 38.66C263.019 36.5208 260.578 34.7841 257.387 34.5896C249.998 34.1736 245.207 37.8369 243.725 45.1591C243.012 48.5669 243.1 52.0938 243.982 55.4617C246.287 64.1497 255.796 67.5462 263.67 62.5306C264.406 62.0783 265.107 61.5356 265.929 60.9657C266.454 63.2271 265.676 64.5296 263.624 65.208C258.775 66.8135 253.894 67.1256 249.004 65.511C241.596 63.0642 237.406 55.5612 238.608 47.0812C240.019 37.5022 247.318 31.9348 257.645 32.6132C259.969 32.7969 262.268 33.2182 264.506 33.8705C266.255 34.359 266.888 35.1324 266.083 36.8736C265.834 37.4118 265.993 38.0947 265.369 38.66Z" fill="white"/>
</g>
<defs>
<clipPath id="clip0_803_2168">
<rect width="405.565" height="64" fill="white" transform="translate(5 10)"/>
</clipPath>
</defs>
</svg>
