<svg width="160" height="160" viewBox="0 0 160 160" fill="none" xmlns="http://www.w3.org/2000/svg">
<path d="M20 118.667C20 115.721 22.3878 113.333 25.3333 113.333H134.667C137.612 113.333 140 115.721 140 118.667C140 130.449 130.449 140 118.667 140H41.3333C29.5513 140 20 130.449 20 118.667Z" fill="#1F3656"/>
<path fill-rule="evenodd" clip-rule="evenodd" d="M25.3333 113.333C22.3878 113.333 20 115.721 20 118.667C20 130.449 29.5513 140 41.3333 140H118.667C130.449 140 140 130.449 140 118.667C140 115.721 137.612 113.333 134.667 113.333H25.3333Z" fill="#1F3656"/>
<path fill-rule="evenodd" clip-rule="evenodd" d="M97.8569 49.0169C99.2278 46.3076 100 43.244 100 40C100 28.9543 91.0458 20 80.0001 20C68.9544 20 60.0001 28.9543 60.0001 40C60.0001 43.244 60.7724 46.3076 62.1432 49.0169C41.5765 55.5137 26.6667 74.7458 26.6667 97.4603C26.6667 98.8629 27.8038 100 29.2064 100H130.794C132.196 100 133.333 98.8629 133.333 97.4603C133.333 74.7458 118.424 55.5137 97.8569 49.0169ZM86.6667 40C86.6667 43.6819 83.682 46.6667 80.0001 46.6667C76.3182 46.6667 73.3334 43.6819 73.3334 40C73.3334 36.3181 76.3182 33.3333 80.0001 33.3333C83.682 33.3333 86.6667 36.3181 86.6667 40Z" fill="#1F3656"/>
</svg>
