<svg width="160" height="160" viewBox="0 0 160 160" fill="none" xmlns="http://www.w3.org/2000/svg">
<path d="M20 86.6668C20 79.303 25.9695 73.3335 33.3333 73.3335H126.667C134.03 73.3335 140 79.303 140 86.6668V90.0002C140 91.8411 138.508 93.3335 136.667 93.3335H23.3333C21.4924 93.3335 20 91.8411 20 90.0002V86.6668Z" fill="#1F3656"/>
<path d="M139.836 109.995C140.018 108.164 138.508 106.667 136.667 106.667H23.3333C21.4924 106.667 19.9825 108.164 20.1641 109.995C21.8344 126.842 36.0472 140 53.3333 140H106.667C123.953 140 138.166 126.842 139.836 109.995Z" fill="#1F3656"/>
<path d="M60.0001 20C63.682 20 66.6667 22.9848 66.6667 26.6667C66.6667 34.8438 64.4849 39.2708 62.6296 42.9814L62.5765 43.0876C61.1241 45.9916 60.0001 48.2391 60.0001 53.3333C60.0001 57.0152 57.0153 60 53.3334 60C49.6515 60 46.6667 57.0152 46.6667 53.3333C46.6667 45.1562 48.8486 40.7292 50.7039 37.0186L50.757 36.9124C52.2094 34.0084 53.3334 31.7609 53.3334 26.6667C53.3334 22.9848 56.3182 20 60.0001 20Z" fill="#1F3656"/>
<path d="M86.6667 20C90.3486 20 93.3334 22.9848 93.3334 26.6667C93.3334 34.8438 91.1516 39.2708 89.2963 42.9814L89.2432 43.0876C87.7908 45.9916 86.6667 48.2391 86.6667 53.3333C86.6667 57.0152 83.682 60 80.0001 60C76.3182 60 73.3334 57.0152 73.3334 53.3333C73.3334 45.1562 75.5152 40.7292 77.3706 37.0186L77.4237 36.9124C78.8761 34.0084 80.0001 31.7609 80.0001 26.6667C80.0001 22.9848 82.9849 20 86.6667 20Z" fill="#1F3656"/>
<path d="M120 26.6667C120 22.9848 117.015 20 113.333 20C109.652 20 106.667 22.9848 106.667 26.6667C106.667 31.7609 105.543 34.0084 104.09 36.9124L104.037 37.0186C102.182 40.7292 100 45.1562 100 53.3333C100 57.0152 102.985 60 106.667 60C110.349 60 113.333 57.0152 113.333 53.3333C113.333 48.2391 114.457 45.9916 115.91 43.0876L115.963 42.9814C117.818 39.2708 120 34.8438 120 26.6667Z" fill="#1F3656"/>
</svg>
